<svg width="500" height="500" viewBox="0 0 500 500" fill="none" xmlns="http://www.w3.org/2000/svg">
<path d="M372.491 284.42C372.491 284.42 319.526 118.112 318.321 115.716C317.117 113.321 314.582 112 313.054 112H281.479C278.763 112 276.641 112.772 275.113 114.316C273.755 115.86 272.821 117.318 272.312 118.691L244.407 208.761L208.248 327.653L172.344 208.761C172.005 207.388 171.071 205.93 169.543 204.386C168.015 202.842 165.893 202.07 163.177 202.07H131.602C130.074 202.07 128.716 202.67 127.528 203.871C126.509 204.901 126 206.102 126 207.474C126 208.16 126.17 208.932 126.509 209.79L178.456 374.49C179.135 376.548 180.323 378.35 182.021 379.894C183.718 381.438 186.01 382.21 188.896 382.21H227.856C230.911 382.21 233.203 381.438 234.731 379.894C236.429 378.35 237.617 376.548 238.296 374.49L263.521 294.511L289.733 381.309C290.073 382.682 291.006 384.14 292.534 385.684C294.062 387.228 296.184 388 298.9 388H330.475C332.003 388 333.361 387.4 334.549 386.199C335.568 385.169 336.077 383.968 336.077 382.596C336.077 381.91 335.908 381.138 335.568 380.28L286.019 223.181L290.242 209.79L297.112 187.617L326.656 285.449C326.995 286.821 327.929 288.28 329.457 289.824C330.985 291.368 333.107 292.14 335.823 292.14H367.398C368.926 292.14 370.284 291.539 371.472 290.338C372.491 289.309 373 288.108 373 286.736C373 286.049 372.83 285.277 372.491 284.42Z" fill="url(#paint0_linear_1_117)"/>
<rect x="20" y="20" width="460" height="460" rx="230" stroke="url(#paint1_linear_1_117)" stroke-width="40"/>
<defs>
<linearGradient id="paint0_linear_1_117" x1="126" y1="112" x2="372.99" y2="388.009" gradientUnits="userSpaceOnUse">
<stop stop-color="#D52D00"/>
<stop offset="0.333333" stop-color="#FF9A56"/>
<stop offset="0.666667" stop-color="#D362A4"/>
<stop offset="1" stop-color="#8A0253"/>
</linearGradient>
<linearGradient id="paint1_linear_1_117" x1="0" y1="0" x2="500" y2="500" gradientUnits="userSpaceOnUse">
<stop stop-color="#D52D00"/>
<stop offset="0.333333" stop-color="#FF9A56"/>
<stop offset="0.666667" stop-color="#D362A4"/>
<stop offset="1" stop-color="#D362A4"/>
</linearGradient>
</defs>
</svg>
